<?xml version="1.0" encoding="UTF-8" standalone="no"?>
<svg width="640px" height="360px" viewBox="0 0 640 360" version="1.1" xmlns="http://www.w3.org/2000/svg" xmlns:xlink="http://www.w3.org/1999/xlink">
    <!-- Generator: Sketch 3.8.3 (29802) - http://www.bohemiancoding.com/sketch -->
    <title>logger</title>
    <desc>Created with Sketch.</desc>
    <defs>
        <radialGradient cx="-7.10561993%" cy="146.843561%" fx="-7.10561993%" fy="146.843561%" r="118.171555%" id="radialGradient-1">
            <stop stop-color="#4BC2B8" offset="0%"></stop>
            <stop stop-color="#25A4D5" offset="100%"></stop>
        </radialGradient>
        <radialGradient cx="0%" cy="100%" fx="0%" fy="100%" r="213.704679%" id="radialGradient-2">
            <stop stop-color="#009AD9" offset="0%"></stop>
            <stop stop-color="#11E6FF" offset="100%"></stop>
        </radialGradient>
        <linearGradient x1="14.2197225%" y1="2.98158213%" x2="91.3534103%" y2="90.8621427%" id="linearGradient-3">
            <stop stop-color="#48416C" offset="0%"></stop>
            <stop stop-color="#231F3A" offset="100%"></stop>
        </linearGradient>
        <radialGradient cx="83.5892974%" cy="13.7337785%" fx="83.5892974%" fy="13.7337785%" r="148.018384%" id="radialGradient-4">
            <stop stop-color="#049CD6" offset="0%"></stop>
            <stop stop-color="#4BC2B8" offset="100%"></stop>
        </radialGradient>
        <filter x="-50%" y="-50%" width="200%" height="200%" filterUnits="objectBoundingBox" id="filter-5">
            <feOffset dx="0" dy="0" in="SourceAlpha" result="shadowOffsetOuter1"></feOffset>
            <feGaussianBlur stdDeviation="17" in="shadowOffsetOuter1" result="shadowBlurOuter1"></feGaussianBlur>
            <feColorMatrix values="0 0 0 0 0   0 0 0 0 0   0 0 0 0 0  0 0 0 0.5 0" type="matrix" in="shadowBlurOuter1" result="shadowMatrixOuter1"></feColorMatrix>
            <feMerge>
                <feMergeNode in="shadowMatrixOuter1"></feMergeNode>
                <feMergeNode in="SourceGraphic"></feMergeNode>
            </feMerge>
        </filter>
        <filter x="-50%" y="-50%" width="200%" height="200%" filterUnits="objectBoundingBox" id="filter-6">
            <feOffset dx="0" dy="-1" in="SourceAlpha" result="shadowOffsetOuter1"></feOffset>
            <feGaussianBlur stdDeviation="17" in="shadowOffsetOuter1" result="shadowBlurOuter1"></feGaussianBlur>
            <feColorMatrix values="0 0 0 0 0   0 0 0 0 0   0 0 0 0 0  0 0 0 0.5 0" type="matrix" in="shadowBlurOuter1" result="shadowMatrixOuter1"></feColorMatrix>
            <feMerge>
                <feMergeNode in="shadowMatrixOuter1"></feMergeNode>
                <feMergeNode in="SourceGraphic"></feMergeNode>
            </feMerge>
        </filter>
    </defs>
    <g id="Ships" stroke="none" stroke-width="1" fill="none" fill-rule="evenodd">
        <g id="logger">
            <rect id="B" fill="url(#radialGradient-2)" x="0" y="0" width="640" height="360"></rect>
            <g id="Group-3">
                <rect id="Rectangle-1" fill="url(#linearGradient-3)" x="0" y="0" width="639.583685" height="359.37609"></rect>
                <rect id="Rectangle-1-Copy" fill="url(#radialGradient-4)" opacity="0.1" x="0" y="0" width="639.583685" height="359.37609"></rect>
            </g>
            <g id="210-hide-notes-flat" transform="translate(214.000000, 63.000000)">
                <g id="210---Hide-Notes-(Flat)">
                    <g id="Page-1">
                        <g id="210---Hide-Notes-(Flat)" filter="url(#filter-5)">
                            <polyline id="Fill-121" fill="#FFFFFF" points="122.559733 7.6433145 107.239766 7.6433145 107.239766 19.1082863 72.7698413 19.1082863 72.7698413 7.6433145 0 7.6433145 0 221.656121 180.009607 221.656121 180.009607 7.6433145 122.559733 7.6433145"></polyline>
                            <polygon id="Fill-122" fill="#404656" points="72.7698413 0 107.239766 0 107.239766 19.1082863 72.7698413 19.1082863"></polygon>
                            <polyline id="Fill-123" fill="#EFECDE" points="134.049708 19.1082863 134.049708 30.573258 45.9598997 30.573258 45.9598997 19.1082863 11.4899749 19.1082863 11.4899749 210.191149 168.519632 210.191149 168.519632 19.1082863 134.049708 19.1082863"></polyline>
                            <polyline id="Fill-124" fill="#8697CB" points="107.239766 7.6433145 107.239766 19.1082863 72.7698413 19.1082863 72.7698413 7.6433145 45.9598997 7.6433145 45.9598997 30.573258 134.049708 30.573258 134.049708 7.6433145 107.239766 7.6433145"></polyline>
                            <path d="M84.2598162,61.146516 L34.4699248,61.146516 C32.3519394,61.146516 30.6399332,59.4382352 30.6399332,57.3248588 C30.6399332,55.2114823 32.3519394,53.5032015 34.4699248,53.5032015 L84.2598162,53.5032015 C86.3778016,53.5032015 88.0898079,55.2114823 88.0898079,57.3248588 C88.0898079,59.4382352 86.3778016,61.146516 84.2598162,61.146516" id="Fill-125" fill="#D5D0BB"></path>
                            <path d="M84.2598162,179.617891 L34.4699248,179.617891 C32.3519394,179.617891 30.6399332,177.90961 30.6399332,175.796234 C30.6399332,173.686679 32.3519394,171.974576 34.4699248,171.974576 L84.2598162,171.974576 C86.3778016,171.974576 88.0898079,173.686679 88.0898079,175.796234 C88.0898079,177.90961 86.3778016,179.617891 84.2598162,179.617891" id="Fill-126" fill="#D5D0BB"></path>
                            <path d="M145.539683,84.0764595 L34.4699248,84.0764595 C32.3519394,84.0764595 30.6399332,82.3681787 30.6399332,80.2548023 C30.6399332,78.1414258 32.3519394,76.433145 34.4699248,76.433145 L145.539683,76.433145 C147.657668,76.433145 149.369674,78.1414258 149.369674,80.2548023 C149.369674,82.3681787 147.657668,84.0764595 145.539683,84.0764595" id="Fill-127" fill="#D5D0BB"></path>
                            <path d="M145.539683,129.936347 L34.4699248,129.936347 C32.3519394,129.936347 30.6399332,128.228066 30.6399332,126.114689 C30.6399332,124.001313 32.3519394,122.293032 34.4699248,122.293032 L145.539683,122.293032 C147.657668,122.293032 149.369674,124.001313 149.369674,126.114689 C149.369674,128.228066 147.657668,129.936347 145.539683,129.936347" id="Fill-128" fill="#D5D0BB"></path>
                            <path d="M145.539683,156.687947 L34.4699248,156.687947 C32.3519394,156.687947 30.6399332,154.979666 30.6399332,152.86629 C30.6399332,150.756735 32.3519394,149.044633 34.4699248,149.044633 L145.539683,149.044633 C147.657668,149.044633 149.369674,150.756735 149.369674,152.86629 C149.369674,154.979666 147.657668,156.687947 145.539683,156.687947" id="Fill-129" fill="#D5D0BB"></path>
                            <path d="M88.0898079,107.006403 L34.4699248,107.006403 C32.3519394,107.006403 30.6399332,105.298122 30.6399332,103.184746 C30.6399332,101.071369 32.3519394,99.3630885 34.4699248,99.3630885 L88.0898079,99.3630885 C90.2077932,99.3630885 91.9197995,101.071369 91.9197995,103.184746 C91.9197995,105.298122 90.2077932,107.006403 88.0898079,107.006403" id="Fill-130" fill="#D5D0BB"></path>
                            <path d="M145.539683,107.006403 L118.729741,107.006403 C116.611756,107.006403 114.899749,105.298122 114.899749,103.184746 C114.899749,101.071369 116.611756,99.3630885 118.729741,99.3630885 L145.539683,99.3630885 C147.657668,99.3630885 149.369674,101.071369 149.369674,103.184746 C149.369674,105.298122 147.657668,107.006403 145.539683,107.006403" id="Fill-131" fill="#D5D0BB"></path>
                            <path d="M103.409774,107.006403 C102.375677,107.006403 101.414349,106.620416 100.69048,105.898122 C99.9972519,105.172008 99.5797828,104.178377 99.5797828,103.184746 C99.5797828,102.152898 99.962782,101.193662 100.69048,100.471369 C102.145877,99.022961 104.673672,99.0573559 106.129069,100.471369 C106.852937,101.193662 107.239766,102.152898 107.239766,103.184746 C107.239766,104.216593 106.818467,105.172008 106.129069,105.898122 C105.39754,106.586021 104.443872,107.006403 103.409774,107.006403" id="Fill-132" fill="#D5D0BB"></path>
                            <g id="Group" filter="url(#filter-6)" transform="translate(102.900585, 162.383333)">
                                <path d="M104.538847,34.8899249 L104.129038,35.512855 C76.8556675,77.0771992 32.2286048,77.0771992 4.95906433,35.512855 L5.36887343,34.8899249 C32.638414,-6.6744194 77.2654766,-6.6744194 104.538847,34.8899249" id="Fill-1797" fill="#FFFFFF"></path>
                                <path d="M77.5005894,34.9710616 C77.5005894,47.4411292 67.3664315,57.5532343 54.8653388,57.5532343 C42.368076,57.5532343 32.2339181,47.4411292 32.2339181,34.9710616 C32.2339181,22.4971723 42.368076,12.3888889 54.8653388,12.3888889 C67.3664315,12.3888889 77.5005894,22.4971723 77.5005894,34.9710616" id="Fill-1798" fill="#556080"></path>
                                <path d="M54.1637419,70.6165827 C34.0409657,70.6165827 15.2931566,58.9299548 1.37113701,37.7121137 L0,35.6216672 L1.78094612,32.9044689 C15.7029657,11.6828062 34.4507749,0 54.569721,0 C74.6924971,0 93.4364762,11.6828062 107.358496,32.9006473 L108.733463,34.9910938 L106.952517,37.7121137 C93.0304971,58.9299548 74.282688,70.6165827 54.1637419,70.6165827 L54.1637419,70.6165827 L54.1637419,70.6165827 Z M9.18431997,35.6063806 C21.4632732,53.2777237 37.3577385,62.9732682 54.1637419,62.9732682 C71.1535848,62.9732682 87.2165698,53.0598893 99.5491429,35.0102021 C87.2701896,17.3388589 71.3718943,7.6433145 54.569721,7.6433145 C37.579878,7.6433145 21.5168931,17.5566934 9.18431997,35.6063806 L9.18431997,35.6063806 L9.18431997,35.6063806 Z" id="Fill-1799" fill="#B1D3F0"></path>
                            </g>
                        </g>
                    </g>
                </g>
            </g>
        </g>
    </g>
</svg>